<svg width="20" height="18" viewBox="0 0 20 18" fill="none" xmlns="http://www.w3.org/2000/svg">
<path d="M1.375 4.98438V15.4688C1.375 16.1069 1.62852 16.719 2.07977 17.1702C2.53103 17.6215 3.14307 17.875 3.78125 17.875H15.4688C16.1069 17.875 16.719 17.6215 17.1702 17.1702C17.6215 16.719 17.875 16.1069 17.875 15.4688V4.98438C17.875 4.93879 17.8569 4.89507 17.8247 4.86284C17.7924 4.83061 17.7487 4.8125 17.7031 4.8125H1.54688C1.50129 4.8125 1.45757 4.83061 1.42534 4.86284C1.39311 4.89507 1.375 4.93879 1.375 4.98438ZM12.8477 11.4997L10.111 14.236C9.98206 14.3648 9.80726 14.4372 9.625 14.4372C9.44274 14.4372 9.26794 14.3648 9.13902 14.236L6.40234 11.4997C6.14066 11.238 6.1166 10.8122 6.36582 10.5381C6.42838 10.4692 6.50428 10.4137 6.58893 10.375C6.67357 10.3363 6.76519 10.3151 6.85824 10.3129C6.95129 10.3106 7.04383 10.3273 7.13025 10.3619C7.21666 10.3964 7.29516 10.4482 7.36098 10.514L8.9375 12.0901V7.58184C8.9375 7.21187 9.22195 6.89434 9.59191 6.87586C9.68487 6.87138 9.77777 6.88582 9.86498 6.91831C9.95219 6.95079 10.0319 7.00064 10.0993 7.06485C10.1666 7.12905 10.2203 7.20626 10.2569 7.2918C10.2936 7.37734 10.3125 7.46944 10.3125 7.5625V12.0901L11.889 10.514C11.9548 10.4482 12.0333 10.3964 12.1198 10.3619C12.2062 10.3273 12.2987 10.3106 12.3918 10.3129C12.4848 10.3151 12.5764 10.3363 12.6611 10.375C12.7457 10.4137 12.8216 10.4692 12.8842 10.5381C13.1334 10.8118 13.1093 11.238 12.8477 11.4997Z" fill="white"/>
<path d="M17.875 0H1.375C0.615608 0 0 0.615608 0 1.375V2.0625C0 2.82189 0.615608 3.4375 1.375 3.4375H17.875C18.6344 3.4375 19.25 2.82189 19.25 2.0625V1.375C19.25 0.615608 18.6344 0 17.875 0Z" fill="white"/>
</svg>
