<svg width="20" height="18" viewBox="0 0 20 18" fill="none" xmlns="http://www.w3.org/2000/svg">
<path d="M0 2C0 1.46957 0.210714 0.960859 0.585786 0.585786C0.960859 0.210714 1.46957 0 2 0H18C18.5304 0 19.0391 0.210714 19.4142 0.585786C19.7893 0.960859 20 1.46957 20 2C20 2.53043 19.7893 3.03914 19.4142 3.41421C19.0391 3.78929 18.5304 4 18 4H2C1.46957 4 0.960859 3.78929 0.585786 3.41421C0.210714 3.03914 0 2.53043 0 2ZM17 6C17.513 6 17.936 6.463 17.993 7.06L18 7.2V14.4C18 16.317 16.751 17.884 15.176 17.994L15 18H5C3.402 18 2.096 16.501 2.005 14.612L2 14.4V7.2C2 6.537 2.448 6 3 6H17ZM12 8H8L7.883 8.007C7.63995 8.03591 7.41594 8.15296 7.25341 8.33597C7.09088 8.51897 7.00111 8.75524 7.00111 9C7.00111 9.24476 7.09088 9.48103 7.25341 9.66403C7.41594 9.84704 7.63995 9.96409 7.883 9.993L8 10H12L12.117 9.993C12.36 9.96409 12.5841 9.84704 12.7466 9.66403C12.9091 9.48103 12.9989 9.24476 12.9989 9C12.9989 8.75524 12.9091 8.51897 12.7466 8.33597C12.5841 8.15296 12.36 8.03591 12.117 8.007L12 8Z" fill="white"/>
</svg>
