<svg width="15" height="15" viewBox="0 0 15 15" fill="none" xmlns="http://www.w3.org/2000/svg">
<g clip-path="url(#clip0_659_13)">
<circle cx="7.5" cy="7.5" r="7.5" fill="#3B82F6"/>
<path d="M10.6173 8.77251C10.6531 8.80634 10.6952 8.83279 10.7412 8.85035C10.7872 8.8679 10.8363 8.87622 10.8855 8.87483C10.9348 8.87344 10.9832 8.86236 11.0282 8.84223C11.0731 8.8221 11.1137 8.79331 11.1475 8.75751C11.1814 8.72171 11.2078 8.67959 11.2254 8.63357C11.2429 8.58755 11.2512 8.53852 11.2498 8.48928C11.2485 8.44004 11.2374 8.39156 11.2173 8.3466C11.1971 8.30164 11.1683 8.26109 11.1325 8.22726L7.75753 5.03976C7.68791 4.97393 7.59572 4.93726 7.49991 4.93726C7.40409 4.93726 7.31191 4.97393 7.24228 5.03976L3.86691 8.22726C3.83032 8.26087 3.80078 8.30141 3.77999 8.34653C3.75921 8.39166 3.7476 8.44046 3.74583 8.49011C3.74407 8.53975 3.75219 8.58926 3.76972 8.63574C3.78725 8.68223 3.81384 8.72476 3.84795 8.76088C3.88205 8.797 3.923 8.82599 3.9684 8.84615C4.01381 8.86631 4.06277 8.87725 4.11243 8.87833C4.1621 8.87941 4.21149 8.87062 4.25773 8.85245C4.30396 8.83428 4.34613 8.80711 4.38178 8.77251L7.49991 5.82801L10.6173 8.77251Z" fill="white"/>
</g>
<defs>
<clipPath id="clip0_659_13">
<rect x="15" y="6.55671e-07" width="15" height="15" rx="7.5" transform="rotate(90 15 6.55671e-07)" fill="white"/>
</clipPath>
</defs>
</svg>
