<svg width="18" height="18" viewBox="0 0 18 18" fill="none" xmlns="http://www.w3.org/2000/svg">
<path d="M16.275 5.475C15.975 5.175 15.525 5.175 15.225 5.475L10.5 10.2L7.275 6.975C7.125 6.825 6.975 6.75 6.75 6.75C6.525 6.75 6.375 6.825 6.225 6.975L1.725 11.475C1.575 11.625 1.5 11.775 1.5 12C1.5 12.45 1.8 12.75 2.25 12.75C2.475 12.75 2.625 12.675 2.775 12.525L6.75 8.55L9.975 11.775C10.05 11.85 10.125 11.925 10.2 11.925C10.275 12 10.425 12 10.5 12C10.65 12 10.875 11.925 10.95 11.775H11.025L16.275 6.525C16.575 6.225 16.575 5.775 16.275 5.475Z" fill="white"/>
</svg>
