<svg width="18" height="20" viewBox="0 0 18 20" fill="none" xmlns="http://www.w3.org/2000/svg">
<path fill-rule="evenodd" clip-rule="evenodd" d="M11.6875 6.94109e-08H7.9695C6.28467 6.94109e-08 4.95 6.8297e-08 3.90592 0.14025C2.83158 0.285083 1.96167 0.589417 1.27508 1.27508C0.589417 1.96167 0.285084 2.83158 0.14025 3.90592C1.77572e-07 4.95092 6.94109e-08 6.28467 6.94109e-08 7.9695V13.5208C-0.000164441 14.3399 0.292105 15.132 0.824173 15.7547C1.35624 16.3773 2.09314 16.7895 2.90217 16.9171C3.02775 17.6174 3.27067 18.2151 3.7565 18.7018C4.30833 19.2537 5.00317 19.4902 5.82817 19.602C6.62292 19.7083 7.634 19.7083 8.88708 19.7083H11.7379C12.991 19.7083 14.0021 19.7083 14.7968 19.602C15.6218 19.4902 16.3167 19.2537 16.8685 18.7018C17.4203 18.15 17.6568 17.4552 17.7687 16.6302C17.875 15.8354 17.875 14.8243 17.875 13.5713V8.88708C17.875 7.634 17.875 6.62292 17.7687 5.82817C17.6568 5.00317 17.4203 4.30833 16.8685 3.7565C16.3818 3.27067 15.7841 3.02775 15.0838 2.90217C14.9562 2.09314 14.544 1.35624 13.9213 0.824173C13.2987 0.292105 12.5065 -0.000164441 11.6875 6.94109e-08ZM13.64 2.76925C13.5006 2.36225 13.2374 2.00902 12.8873 1.75901C12.5372 1.50901 12.1177 1.37474 11.6875 1.375H8.02083C6.27275 1.375 5.03158 1.37683 4.08833 1.50333C3.16708 1.62708 2.63542 1.85992 2.24767 2.24767C1.85992 2.63542 1.62708 3.16708 1.50333 4.08833C1.37683 5.03158 1.375 6.27275 1.375 8.02083V13.5208C1.37474 13.951 1.50901 14.3706 1.75901 14.7207C2.00902 15.0708 2.36225 15.3339 2.76925 15.4733C2.75 14.9142 2.75 14.2817 2.75 13.5713V8.88708C2.75 7.634 2.75 6.62292 2.85725 5.82817C2.96725 5.00317 3.20558 4.30833 3.7565 3.7565C4.30833 3.20467 5.00317 2.96817 5.82817 2.85725C6.62292 2.75 7.634 2.75 8.88708 2.75H11.7379C12.4483 2.75 13.0808 2.75 13.64 2.76925ZM4.72817 4.73C4.98208 4.47608 5.33775 4.31108 6.0115 4.22033C6.70267 4.12775 7.62117 4.12592 8.93658 4.12592H11.6866C13.002 4.12592 13.9196 4.12775 14.6126 4.22033C15.2854 4.31108 15.6411 4.477 15.895 4.73C16.1489 4.98392 16.3139 5.33958 16.4047 6.01333C16.4972 6.7045 16.4991 7.623 16.4991 8.93842V13.5217C16.4991 14.8372 16.4972 15.7548 16.4047 16.4478C16.3139 17.1206 16.148 17.4762 15.895 17.7302C15.6411 17.9841 15.2854 18.1491 14.6117 18.2398C13.9196 18.3324 13.002 18.3342 11.6866 18.3342H8.93658C7.62117 18.3342 6.70267 18.3324 6.01058 18.2398C5.33775 18.1491 4.98208 17.9832 4.72817 17.7302C4.47425 17.4762 4.30925 17.1206 4.2185 16.4468C4.12592 15.7548 4.12408 14.8372 4.12408 13.5217V8.93842C4.12408 7.623 4.12592 6.7045 4.2185 6.01242C4.30925 5.33958 4.47517 4.98392 4.72817 4.73Z" fill="#3B82F6"/>
</svg>
