<svg width="19" height="18" viewBox="0 0 19 18" fill="none" xmlns="http://www.w3.org/2000/svg">
<path d="M7.31397 5.73049L7.82897 7.59349C8.31397 9.34849 8.55597 10.2265 9.26897 10.6255C9.98197 11.0255 10.887 10.7895 12.697 10.3195L14.617 9.81949C16.427 9.34949 17.332 9.11449 17.744 8.42349C18.156 7.73149 17.914 6.85349 17.428 5.09849L16.914 3.23649C16.429 1.48049 16.186 0.602486 15.474 0.203486C14.76 -0.196514 13.855 0.0394861 12.045 0.510486L10.125 1.00849C8.31497 1.47849 7.40997 1.71449 6.99897 2.40649C6.58697 3.09749 6.82897 3.97549 7.31397 5.73049Z" fill="#15C651"/>
<path d="M0.0271879 2.24749C0.0535346 2.15251 0.0983431 2.06366 0.159052 1.98601C0.21976 1.90837 0.295178 1.84345 0.380993 1.79497C0.466807 1.74649 0.561336 1.7154 0.659175 1.70348C0.757013 1.69155 0.856242 1.69903 0.951188 1.72549L2.65419 2.19749C3.1054 2.32033 3.51714 2.55785 3.84938 2.88693C4.18161 3.21601 4.42304 3.62547 4.55019 4.07549L6.70119 11.8615L6.85919 12.4085C7.49694 12.6435 8.03437 13.0909 8.38119 13.6755L8.69119 13.5795L17.5612 11.2745C17.6565 11.2497 17.7558 11.2439 17.8534 11.2574C17.951 11.271 18.0449 11.3036 18.1299 11.3535C18.2149 11.4033 18.2892 11.4695 18.3486 11.548C18.408 11.6266 18.4514 11.7161 18.4762 11.8115C18.501 11.9068 18.5068 12.0061 18.4933 12.1037C18.4797 12.2013 18.4471 12.2952 18.3972 12.3802C18.3473 12.4652 18.2812 12.5395 18.2026 12.5989C18.124 12.6583 18.0345 12.7017 17.9392 12.7265L9.10219 15.0225L8.77219 15.1245C8.76619 16.3945 7.88919 17.5565 6.56219 17.9005C4.97219 18.3145 3.33719 17.3985 2.91119 15.8565C2.48519 14.3145 3.42919 12.7275 5.01919 12.3145C5.09852 12.2945 5.17752 12.2772 5.25619 12.2625L3.10419 4.47449C3.04599 4.27454 2.93718 4.09299 2.78827 3.94741C2.63936 3.80183 2.4554 3.69715 2.25419 3.64349L0.550188 3.17049C0.455231 3.14424 0.366376 3.09954 0.288698 3.03895C0.21102 2.97835 0.146041 2.90305 0.0974735 2.81733C0.0489056 2.73162 0.0177004 2.63718 0.00564059 2.5394C-0.00641918 2.44163 0.000902701 2.34243 0.0271879 2.24749Z" fill="statusColor"/>
</svg>
