<svg width="177" height="176" viewBox="0 0 177 176" fill="none" xmlns="http://www.w3.org/2000/svg">
<path d="M137.606 21.4827L119.939 12.2077C104.428 4.07217 96.672 0 88.3333 0C79.9947 0 72.239 4.06333 56.7277 12.2077L53.8922 13.7005L132.712 58.7417L168.187 40.9867C162.48 34.5207 153.276 29.6888 137.606 21.465M174.441 52.682L139.125 70.3487V97.1667C139.125 98.9237 138.427 100.609 137.185 101.851C135.942 103.094 134.257 103.792 132.5 103.792C130.743 103.792 129.058 103.094 127.815 101.851C126.573 100.609 125.875 98.9237 125.875 97.1667V76.9737L94.9583 92.432V175.819C101.301 174.238 108.517 170.457 119.939 164.459L137.606 155.184C156.606 145.211 166.111 140.229 171.393 131.263C176.667 122.306 176.667 111.15 176.667 88.8633V87.8298C176.667 71.1083 176.667 60.6497 174.441 52.682ZM81.7083 175.819V92.432L2.226 52.682C7.89762e-07 60.6497 0 71.1083 0 87.8122V88.8457C0 111.15 -1.05302e-06 122.306 5.2735 131.263C10.5558 140.229 20.0605 145.22 39.061 155.193L56.7277 164.459C68.1492 170.457 75.366 174.238 81.7083 175.819ZM8.48 40.9955L88.3333 80.9222L118.464 65.8613L39.9708 21.0057L39.061 21.4827C23.3995 29.6977 14.1863 34.5295 8.48 41.0043" fill="#195DCC" fill-opacity="0.48"/>
</svg>
