<svg width="18" height="18" viewBox="0 0 18 18" fill="none" xmlns="http://www.w3.org/2000/svg">
<path d="M6.75104 10.6875C7.24995 10.6874 7.73476 10.8531 8.12922 11.1585C8.52369 11.464 8.80543 11.8919 8.93016 12.375H15.1885C15.3291 12.3747 15.4647 12.4271 15.5685 12.5218C15.6724 12.6165 15.7371 12.7467 15.7498 12.8867C15.7625 13.0267 15.7223 13.1663 15.6372 13.2782C15.552 13.39 15.4281 13.466 15.2898 13.491L15.1885 13.5L8.93016 13.5011C8.80585 13.9846 8.52428 14.413 8.12978 14.7189C7.73528 15.0248 7.25025 15.1908 6.75104 15.1908C6.25183 15.1908 5.7668 15.0248 5.37229 14.7189C4.97779 14.413 4.69622 13.9846 4.57191 13.5011L2.81354 13.5C2.67297 13.5003 2.53741 13.4479 2.43353 13.3532C2.32966 13.2585 2.265 13.1283 2.2523 12.9883C2.2396 12.8483 2.27977 12.7087 2.36491 12.5968C2.45004 12.485 2.57397 12.409 2.71229 12.384L2.81354 12.375H4.57191C4.69664 11.8919 4.97839 11.464 5.37285 11.1585C5.76732 10.8531 6.25212 10.6874 6.75104 10.6875ZM6.75104 11.8125C6.45267 11.8125 6.16652 11.931 5.95554 12.142C5.74456 12.353 5.62604 12.6391 5.62604 12.9375C5.62604 13.2359 5.74456 13.522 5.95554 13.733C6.16652 13.944 6.45267 14.0625 6.75104 14.0625C7.04941 14.0625 7.33555 13.944 7.54653 13.733C7.75751 13.522 7.87604 13.2359 7.87604 12.9375C7.87604 12.6391 7.75751 12.353 7.54653 12.142C7.33555 11.931 7.04941 11.8125 6.75104 11.8125ZM11.251 2.8125C11.7499 2.81237 12.2348 2.97807 12.6292 3.28354C13.0237 3.58901 13.3054 4.01693 13.4302 4.5H15.1885C15.3291 4.49974 15.4647 4.55212 15.5685 4.64682C15.6724 4.74152 15.7371 4.87168 15.7498 5.01167C15.7625 5.15166 15.7223 5.29134 15.6372 5.40319C15.552 5.51504 15.4281 5.59096 15.2898 5.616L15.1885 5.625L13.4302 5.62612C13.3059 6.10961 13.0243 6.53802 12.6298 6.84392C12.2353 7.14983 11.7502 7.31584 11.251 7.31584C10.7518 7.31584 10.2668 7.14983 9.87229 6.84392C9.47779 6.53802 9.19622 6.10961 9.07191 5.62612L2.81354 5.625C2.67297 5.62526 2.53741 5.57288 2.43353 5.47818C2.32966 5.38348 2.265 5.25332 2.2523 5.11333C2.2396 4.97334 2.27977 4.83366 2.36491 4.72181C2.45004 4.60996 2.57397 4.53404 2.71229 4.509L2.81354 4.5H9.07191C9.19664 4.01693 9.47839 3.58901 9.87285 3.28354C10.2673 2.97807 10.7521 2.81237 11.251 2.8125ZM11.251 3.9375C10.9527 3.9375 10.6665 4.05603 10.4555 4.267C10.2446 4.47798 10.126 4.76413 10.126 5.0625C10.126 5.36087 10.2446 5.64702 10.4555 5.85799C10.6665 6.06897 10.9527 6.1875 11.251 6.1875C11.5494 6.1875 11.8356 6.06897 12.0465 5.85799C12.2575 5.64702 12.376 5.36087 12.376 5.0625C12.376 4.76413 12.2575 4.47798 12.0465 4.267C11.8356 4.05603 11.5494 3.9375 11.251 3.9375Z" fill="white"/>
</svg>
