<svg width="17" height="17" viewBox="0 0 17 17" fill="none" xmlns="http://www.w3.org/2000/svg">
<path d="M12.4524 3.13917L11.0357 2.39542C9.79189 1.74305 9.16997 1.4165 8.5013 1.4165C7.83264 1.4165 7.21072 1.74234 5.96689 2.39542L5.73951 2.51513L12.06 6.12692L14.9046 4.70317C14.4471 4.18467 13.709 3.79721 12.4524 3.13775M15.4061 5.641L12.5742 7.05767V9.20817C12.5742 9.34907 12.5182 9.48419 12.4186 9.58382C12.319 9.68345 12.1839 9.73942 12.043 9.73942C11.9021 9.73942 11.7669 9.68345 11.6673 9.58382C11.5677 9.48419 11.5117 9.34907 11.5117 9.20817V7.58892L9.03255 8.8285V15.5152C9.54114 15.3884 10.1198 15.0852 11.0357 14.6043L12.4524 13.8605C13.976 13.0608 14.7382 12.6613 15.1618 11.9423C15.5846 11.2241 15.5846 10.3295 15.5846 8.54234V8.45946C15.5846 7.11859 15.5846 6.27992 15.4061 5.641ZM7.97005 15.5152V8.8285L1.59647 5.641C1.41797 6.27992 1.41797 7.11859 1.41797 8.45805V8.54092C1.41797 10.3295 1.41797 11.2241 1.84084 11.9423C2.26443 12.6613 3.02659 13.0615 4.55022 13.8612L5.96689 14.6043C6.88276 15.0852 7.46147 15.3884 7.97005 15.5152ZM2.09797 4.70388L8.5013 7.90555L10.9174 6.69784L4.62318 3.10092L4.55022 3.13917C3.29434 3.79792 2.55555 4.18538 2.09797 4.70459" fill="white"/>
</svg>
