<svg width="14" height="14" viewBox="0 0 14 14" fill="none" xmlns="http://www.w3.org/2000/svg">
<path d="M10.5194 9.69309L13.0178 12.1909L12.1924 13.0163L9.69455 10.5179C8.76515 11.263 7.60914 11.6682 6.41797 11.6665C3.51997 11.6665 1.16797 9.3145 1.16797 6.4165C1.16797 3.5185 3.51997 1.1665 6.41797 1.1665C9.31597 1.1665 11.668 3.5185 11.668 6.4165C11.6697 7.60767 11.2644 8.76368 10.5194 9.69309ZM9.34922 9.26025C10.0894 8.49883 10.5028 7.47838 10.5013 6.4165C10.5013 4.16075 8.67372 2.33317 6.41797 2.33317C4.16222 2.33317 2.33464 4.16075 2.33464 6.4165C2.33464 8.67225 4.16222 10.4998 6.41797 10.4998C7.47985 10.5013 8.5003 10.0879 9.26172 9.34775L9.34922 9.26025Z" fill="white"/>
</svg>
